<svg width="312" height="130" viewBox="0 0 312 130" fill="none" xmlns="http://www.w3.org/2000/svg">
<g filter="url(#filter0_d_405_14252)">
<path d="M154.5 243C220.498 243 274 188.603 274 121.5C274 54.3974 220.498 0 154.5 0C88.502 0 35 54.3974 35 121.5C35 188.603 88.502 243 154.5 243Z" fill="url(#paint0_linear_405_14252)"/>
<path d="M144.219 77.9834L100.123 130.591L101.059 131.376L145.156 78.7682L144.219 77.9834Z" fill="#120283"/>
<path d="M19.5985 107.14L19.231 108.305L100.264 133.87L100.632 132.705L19.5985 107.14Z" fill="#120283"/>
<path d="M20.6109 122.275C28.6233 121.619 34.5868 114.592 33.9309 106.579C33.275 98.5671 26.248 92.6036 18.2357 93.2595C10.2233 93.9154 4.25975 100.942 4.91567 108.955C5.57159 116.967 12.5986 122.931 20.6109 122.275Z" fill="#353A85"/>
<path d="M69.9923 47.2769L68.8501 47.7106L100.104 130.03L101.246 129.596L69.9923 47.2769Z" fill="#120283"/>
<path d="M71.12 47.0333L70.6499 48.161L144.455 78.9283L144.925 77.8007L71.12 47.0333Z" fill="#120283"/>
<path d="M217.132 41.1716L142.872 77.7285L143.411 78.8246L217.672 42.2677L217.132 41.1716Z" fill="#120283"/>
<path d="M145.01 77.8468L144.371 78.8876L222.437 126.877L223.077 125.836L145.01 77.8468Z" fill="#120283"/>
<path d="M293.618 68.6582L222.375 125.898L223.14 126.851L294.383 69.6106L293.618 68.6582Z" fill="#120283"/>
<path d="M153.996 99.7704C167.806 96.2991 176.187 82.2903 172.715 68.4808C169.244 54.6713 155.235 46.2905 141.426 49.7617C127.616 53.233 119.235 67.2418 122.707 81.0514C126.178 94.8609 140.187 103.242 153.996 99.7704Z" fill="#353A85"/>
<path d="M295.217 87.1061C305.188 86.4316 312.724 77.8015 312.05 67.8303C311.375 57.8591 302.745 50.3227 292.774 50.9972C282.803 51.6717 275.267 60.3018 275.941 70.273C276.616 80.2442 285.246 87.7806 295.217 87.1061Z" fill="#353A85"/>
<path d="M90.7729 49.9256C91.8636 39.2062 84.058 29.6322 73.3386 28.5415C62.6192 27.4507 53.0452 35.2563 51.9544 45.9758C50.8637 56.6952 58.6693 66.2692 69.3887 67.3599C80.1081 68.4506 89.6821 60.6451 90.7729 49.9256Z" fill="#120283"/>
<path d="M229.51 49.3376C233.716 42.6526 231.707 33.8232 225.022 29.6167C218.337 25.4101 209.508 27.4193 205.301 34.1044C201.095 40.7894 203.104 49.6188 209.789 53.8254C216.474 58.0319 225.303 56.0227 229.51 49.3376Z" fill="#BF0830"/>
<path d="M248.693 144.681C263.677 129.696 263.677 105.402 248.693 90.4177C233.709 75.4334 209.415 75.4334 194.43 90.4177C179.446 105.402 179.446 129.696 194.43 144.681C209.415 159.665 233.709 159.665 248.693 144.681Z" fill="#120283"/>
<path d="M101.112 145.212C112.985 143.683 121.371 132.817 119.842 120.944C118.312 109.07 107.447 100.684 95.5728 102.213C83.6989 103.743 75.3131 114.609 76.8427 126.482C78.3722 138.356 89.2377 146.742 101.112 145.212Z" fill="#BF0830"/>
<path d="M18.666 120.631C20.3602 120.741 22.0594 120.516 23.6664 119.968C25.2734 119.421 26.7567 118.562 28.0315 117.441C27.7118 116.228 27.3166 115.036 26.8482 113.873C26.0892 112 24.6748 110.466 22.8688 109.559L22.9142 109.496C23.6187 108.266 23.96 106.862 23.8985 105.447C23.8985 104.124 23.6472 102.759 22.8513 101.645C22.4279 101.012 21.837 100.508 21.1444 100.19C20.4517 99.8722 19.6845 99.7528 18.928 99.8451C18.1716 99.9373 17.4555 100.238 16.8595 100.713C16.2636 101.188 15.811 101.818 15.5523 102.535C14.9938 103.879 15.0531 105.328 15.1614 106.759C15.2324 107.778 15.5192 108.77 16.0026 109.67C14.8672 110.405 13.8768 111.342 13.0809 112.435C12.1524 113.629 12.1908 113.685 11.6078 115.095C11.3216 115.793 11.0389 116.491 10.791 117.29C12.9593 119.268 15.7373 120.446 18.666 120.631Z" fill="white"/>
<path d="M70.625 64.7416C72.864 64.8887 75.11 64.5923 77.2341 63.8693C79.3583 63.1463 81.3187 62.0109 83.003 60.5283C82.5834 58.9237 82.0622 57.3474 81.4426 55.8089C80.439 53.3334 78.5693 51.3074 76.1821 50.1086C76.1821 50.0772 76.224 50.0527 76.2415 50.0248C77.2503 48.3982 77.5575 46.5132 77.54 44.6736C77.54 42.9283 77.2119 41.1201 76.1437 39.6435C75.5755 38.858 74.8182 38.2285 73.942 37.8136C73.0657 37.3987 72.0989 37.2116 71.1311 37.2699C68.9774 37.4618 67.246 39.0536 66.5095 40.8269C65.7729 42.6001 65.8497 44.534 65.9963 46.412C66.087 47.7571 66.4668 49.0668 67.1099 50.2517C65.608 51.2206 64.298 52.4584 63.2457 53.903C62.0204 55.4842 62.0693 55.5576 61.2979 57.4181C60.9209 58.3361 60.5439 59.2821 60.2192 60.3223C63.083 62.938 66.7542 64.4971 70.625 64.7416Z" fill="white"/>
<path d="M97.245 142.992C99.6536 143.149 102.069 142.829 104.354 142.05C106.639 141.272 108.747 140.05 110.558 138.454C110.105 136.729 109.544 135.034 108.879 133.379C107.799 130.717 105.788 128.539 103.221 127.249C103.238 127.218 103.263 127.19 103.284 127.159C104.369 125.413 104.701 123.382 104.68 121.406C104.663 119.524 104.331 117.566 103.179 115.999C102.568 115.152 101.753 114.474 100.809 114.027C99.8659 113.579 98.8248 113.378 97.7826 113.44C95.4682 113.65 93.5937 115.36 92.8153 117.28C92.0369 119.2 92.1172 121.27 92.2603 123.284C92.3597 124.733 92.7679 126.145 93.4576 127.424C91.8427 128.466 90.4344 129.797 89.3037 131.351C87.9842 133.051 88.0401 133.128 87.2093 135.131C86.8009 136.116 86.3959 137.135 86.0469 138.255C89.1318 141.063 93.082 142.734 97.245 142.992Z" fill="white"/>
<path d="M293.083 83.881C295.162 84.0167 297.247 83.7409 299.218 83.0695C301.19 82.398 303.01 81.344 304.574 79.9679C304.182 78.4787 303.697 77.0156 303.122 75.5871C302.188 73.2896 300.451 71.4093 298.235 70.2952C298.235 70.2708 298.274 70.2464 298.288 70.2184C299.227 68.7105 299.509 66.9616 299.495 65.2547C299.495 63.628 299.192 61.956 298.2 60.5876C297.673 59.8571 296.97 59.2715 296.156 58.8853C295.341 58.499 294.443 58.3245 293.544 58.378C291.547 58.5596 289.941 60.0361 289.257 61.6837C288.573 63.3313 288.643 65.122 288.779 66.8639C288.87 68.1152 289.227 69.3326 289.826 70.4349C288.432 71.3353 287.216 72.4842 286.238 73.8243C285.103 75.2904 285.149 75.3602 284.433 77.0881C284.084 77.9363 283.735 78.816 283.431 79.7829C286.089 82.2072 289.493 83.6528 293.083 83.881Z" fill="white"/>
<path d="M146.436 96.999C149.34 97.1886 152.254 96.8031 155.009 95.8644C157.765 94.9258 160.308 93.4525 162.493 91.5291C161.946 89.4465 161.269 87.4003 160.465 85.403C159.16 82.1906 156.734 79.561 153.637 78.0027C153.66 77.9653 153.686 77.9291 153.714 77.8945C155.023 75.8001 155.421 73.3357 155.4 70.948C155.4 68.6756 154.974 66.3368 153.588 64.4205C152.202 62.5041 149.678 61.1008 147.078 61.3347C144.285 61.5895 142.037 63.6525 141.081 65.9529C140.124 68.2532 140.236 70.77 140.425 73.2135C140.545 74.9625 141.038 76.6656 141.87 78.2087C140.034 79.3187 138.407 80.9454 136.854 82.949C135.3 84.9527 135.332 85.0958 134.33 87.5148C133.838 88.7017 133.352 89.9304 132.934 91.2848C136.653 94.6702 141.416 96.6859 146.436 96.999Z" fill="white"/>
<path d="M216.665 53.6029C218.329 53.7103 219.997 53.488 221.575 52.9489C223.153 52.4098 224.609 51.5644 225.859 50.4612C225.546 49.2745 225.159 48.1086 224.7 46.9706C223.955 45.1321 222.567 43.6273 220.794 42.7363C220.807 42.7146 220.821 42.6936 220.836 42.6735C221.529 41.4679 221.864 40.0902 221.803 38.7011C221.803 37.3991 221.559 36.0622 220.756 34.9661C220.339 34.3474 219.759 33.8561 219.08 33.5465C218.401 33.2369 217.65 33.121 216.909 33.2117C216.169 33.3024 215.468 33.5961 214.884 34.0603C214.3 34.5245 213.855 35.1412 213.6 35.8422C213.052 37.1582 213.108 38.5964 213.216 39.9892C213.285 40.9902 213.567 41.9649 214.043 42.8481C212.928 43.5663 211.955 44.4847 211.174 45.5568C210.263 46.7332 210.301 46.7855 209.729 48.1713C209.446 48.8485 209.167 49.5676 208.926 50.3286C211.057 52.2702 213.787 53.4254 216.665 53.6029Z" fill="white"/>
<path d="M219.489 152.134C224.189 152.443 228.903 151.821 233.361 150.303C237.819 148.786 241.935 146.403 245.47 143.292C244.585 139.925 243.489 136.616 242.189 133.386C240.082 128.192 236.16 123.94 231.151 121.423C231.19 121.364 231.239 121.308 231.274 121.249C233.392 117.838 234.038 113.88 234.007 110.019C233.975 106.347 233.309 102.567 231.075 99.4669C228.841 96.3671 224.753 94.0982 220.55 94.4787C216.033 94.8871 212.399 98.2242 210.857 101.945C209.314 105.666 209.46 109.726 209.775 113.66C209.966 116.487 210.763 119.241 212.11 121.734C209.139 123.528 206.525 126.157 204.001 129.413C201.432 132.726 201.537 132.883 199.92 136.789C199.124 138.713 198.336 140.699 197.651 142.884C203.665 148.364 211.369 151.627 219.489 152.134Z" fill="white"/>
</g>
<defs>
<filter id="filter0_d_405_14252" x="0.866211" y="0" width="315.226" height="251" filterUnits="userSpaceOnUse" color-interpolation-filters="sRGB">
<feFlood flood-opacity="0" result="BackgroundImageFix"/>
<feColorMatrix in="SourceAlpha" type="matrix" values="0 0 0 0 0 0 0 0 0 0 0 0 0 0 0 0 0 0 127 0" result="hardAlpha"/>
<feOffset dy="4"/>
<feGaussianBlur stdDeviation="2"/>
<feComposite in2="hardAlpha" operator="out"/>
<feColorMatrix type="matrix" values="0 0 0 0 0 0 0 0 0 0 0 0 0 0 0 0 0 0 0.25 0"/>
<feBlend mode="normal" in2="BackgroundImageFix" result="effect1_dropShadow_405_14252"/>
<feBlend mode="normal" in="SourceGraphic" in2="effect1_dropShadow_405_14252" result="shape"/>
</filter>
<linearGradient id="paint0_linear_405_14252" x1="264.121" y1="5.32435" x2="-59.4525" y2="139.71" gradientUnits="userSpaceOnUse">
<stop stop-color="#E3E7F6"/>
<stop offset="1" stop-color="#E3E7F6" stop-opacity="0"/>
</linearGradient>
</defs>
</svg>
